<?xml version="1.0" encoding="UTF-8" standalone="no"?>
<!-- Created with Inkscape (http://www.inkscape.org/) -->

<svg
   xmlns:dc="http://purl.org/dc/elements/1.1/"
   xmlns:cc="http://creativecommons.org/ns#"
   xmlns:rdf="http://www.w3.org/1999/02/22-rdf-syntax-ns#"
   xmlns:svg="http://www.w3.org/2000/svg"
   xmlns="http://www.w3.org/2000/svg"
   xmlns:sodipodi="http://sodipodi.sourceforge.net/DTD/sodipodi-0.dtd"
   xmlns:inkscape="http://www.inkscape.org/namespaces/inkscape"
   width="210mm"
   height="297mm"
   viewBox="0 0 744.09448819 1052.3622047"
   id="svg2"
   version="1.1"
   inkscape:version="0.91 r13725"
   sodipodi:docname="flip_logo.svg">
  <defs
     id="defs4" />
  <sodipodi:namedview
     id="base"
     pagecolor="#ffffff"
     bordercolor="#666666"
     borderopacity="1.0"
     inkscape:pageopacity="0.0"
     inkscape:pageshadow="2"
     inkscape:zoom="0.51408156"
     inkscape:cx="372.04724"
     inkscape:cy="526.1811"
     inkscape:document-units="px"
     inkscape:current-layer="layer1"
     showgrid="false"
     inkscape:window-width="1280"
     inkscape:window-height="707"
     inkscape:window-x="-1"
     inkscape:window-y="0"
     inkscape:window-maximized="0" />
  <metadata
     id="metadata7">
    <rdf:RDF>
      <cc:Work
         rdf:about="">
        <dc:format>image/svg+xml</dc:format>
        <dc:type
           rdf:resource="http://purl.org/dc/dcmitype/StillImage" />
        <dc:title />
      </cc:Work>
    </rdf:RDF>
  </metadata>
  <g
     inkscape:label="Layer 1"
     inkscape:groupmode="layer"
     id="layer1">
    <rect
       style="fill:none;fill-opacity:1;fill-rule:evenodd;stroke:#000000;stroke-width:7.90563059;stroke-miterlimit:4;stroke-dasharray:none;stroke-dashoffset:0;stroke-opacity:1"
       id="rect4136"
       width="343.09198"
       height="342.95151"
       x="-512.97461"
       y="-628.19391"
       transform="scale(-1,-1)" />
    <path
       style="fill:#000000;fill-opacity:1;fill-rule:evenodd;stroke:#000000;stroke-width:5.12707376;stroke-miterlimit:4;stroke-dasharray:none;stroke-dashoffset:0;stroke-opacity:1"
       d="m 508.96159,458.39463 0,167.36795 -167.46816,0 -167.46817,0 0,-89.84434 0,-89.84433 7.74678,-9.24657 c 4.2607,-5.08562 11.73979,-13.3706 16.62018,-18.41107 7.52921,-7.77618 10.28243,-10.11358 18.1745,-15.42969 5.1156,-3.44587 11.95362,-7.55027 15.19561,-9.12088 6.27663,-3.04081 19.30789,-7.29996 28.68791,-9.37642 33.17053,-7.34293 66.33457,1.37395 88.53808,23.27148 12.03182,11.86601 17.93089,24.85289 18.6012,40.9508 0.75856,18.21716 -4.7712,31.24264 -17.83462,42.00995 -4.78763,3.94612 -12.25334,8.88491 -12.71532,8.41157 -0.14527,-0.14883 0.90016,-1.85821 2.32316,-3.7986 6.01206,-8.19797 8.51558,-16.18737 7.91631,-25.26303 -0.64043,-9.69904 -3.27462,-15.82539 -9.36015,-21.76906 -6.61987,-6.46554 -14.25859,-11.07368 -23.01777,-13.88573 -7.54629,-2.42266 -20.28707,-1.83255 -30.07462,1.39295 -14.22394,4.6875 -28.08012,17.20978 -33.85999,30.60036 -4.43878,10.28356 -5.77052,24.58848 -3.23974,34.79972 4.37353,17.64642 16.79111,38.13909 30.3621,50.10638 23.94341,21.114 62.11165,30.73677 94.61353,23.85344 19.80735,-4.19485 45.70399,-17.33479 59.68198,-30.2826 21.46767,-19.8855 32.89514,-43.56044 38.00807,-78.74348 1.99151,-13.70402 2.036,-33.82774 0.10321,-46.67972 -4.35394,-28.95108 -13.75542,-55.44408 -26.64524,-75.08518 -7.88835,-12.02003 -22.04417,-29.43232 -35.95633,-44.22791 -4.30887,-4.58247 -11.6332,-10.45614 -11.6332,-10.67399 0,-0.21785 28.30181,1.55004 58.24979,1.55004 l 54.4509,0 z"
       id="path4154"
       inkscape:connector-curvature="0"
       sodipodi:nodetypes="ccccccsssssssscsssssssssssssssscc" />
    <path
       style="fill:#000000;fill-rule:evenodd;stroke:#000000;stroke-width:1px;stroke-linecap:butt;stroke-linejoin:miter;stroke-opacity:1;fill-opacity:1"
       d="m 388.47214,286.443 22.05018,18.15897 -0.64854,-18.15897 z"
       id="path4262"
       inkscape:connector-curvature="0" />
    <text
       xml:space="preserve"
       style="font-style:normal;font-variant:normal;font-weight:normal;font-stretch:normal;font-size:37.5348053px;line-height:100%;font-family:'Times New Roman';-inkscape-font-specification:'Times New Roman, Normal';text-align:start;letter-spacing:0px;word-spacing:0px;writing-mode:lr-tb;text-anchor:start;fill:#000000;fill-opacity:1;stroke:none;stroke-width:1px;stroke-linecap:butt;stroke-linejoin:miter;stroke-opacity:1"
       x="151.58928"
       y="763.17426"
       id="text4264"
       sodipodi:linespacing="100%"
       transform="scale(1.0009282,0.99907268)"><tspan
         sodipodi:role="line"
         id="tspan4266"
         x="151.58928"
         y="763.17426"
         style="font-size:158.89733887px"><tspan
           style="font-style:normal;font-variant:normal;font-weight:bold;font-stretch:normal;font-size:158.89733887px;font-family:sans-serif;-inkscape-font-specification:'sans-serif Bold'"
           id="tspan4270">FL</tspan><tspan
           style="font-style:italic;font-variant:normal;font-weight:bold;font-stretch:normal;font-size:158.89733887px;font-family:'Times New Roman';-inkscape-font-specification:'Times New Roman, Bold Italic'"
           id="tspan4268">i</tspan><tspan
           id="tspan4278"
           style="font-style:normal;font-variant:normal;font-weight:bold;font-stretch:normal;font-size:158.89733887px;font-family:sans-serif;-inkscape-font-specification:'sans-serif Bold'">P</tspan></tspan></text>
  </g>
</svg>
